<?xml version="1.0" encoding="UTF-8" standalone="no"?>
<svg
   viewBox="0 0 130.44299 290.60999"
   width="130.443"
   height="290.609"
   xmlns="http://www.w3.org/2000/svg">
  <defs>
    <style>.cls-1{fill:#10aa50;}.cls-2{fill:#b8c4c2;}.cls-3{fill:#12924f;}</style>
  </defs>
  <path class="cls-1" d="M 128.11943,115.65 C 112.80943,48.11 80.899428,30.13 72.759428,17.42 a 144.57,144.57 0 0 1 -8.9,-17.42 c -0.43,6 -1.22,9.78 -6.32,14.33 -10.24,9.13 -53.7300003,44.57 -57.3900003,121.31 -3.41,71.55 52.6000003,115.67 60.0000003,120.23 5.69,2.8 12.62,0.06 16,-2.51 27.000002,-18.53 63.890002,-67.93 52.000002,-137.71"/>
  <path class="cls-2" d="m 66.179428,217.77 c -1.41,17.71 -2.42,28 -6,38.12 0,0 2.35,16.86 4,34.72 h 5.84 a 324.73,324.73 0 0 1 6.37,-37.39 c -7.56,-3.72 -9.92,-19.91 -10.21,-35.45 z"/>
  <path class="cls-3" d="m 76.379428,253.23 v 0 c -7.64,-3.53 -9.85,-20.06 -10.19,-35.46 a 725.83,725.83 0 0 0 1.65,-76.35 c -0.4,-13.36 0.19,-123.74 -3.29,-139.9 a 134.29,134.29 0 0 0 8.21,15.89 c 8.14,12.72 40.060002,30.7 55.360002,98.24 11.92,69.66 -24.77,118.93 -51.740002,137.58 z"/>
</svg>
