<?xml version="1.0" encoding="UTF-8" standalone="no"?>
<!-- Created with Inkscape (http://www.inkscape.org/) -->

<svg
   viewBox="0 0 24 24"
   version="1.1"
   id="svg1"
   sodipodi:docname="comma.svg"
   xml:space="preserve"
   inkscape:version="1.3 (0e150ed, 2023-07-21)"
   xmlns:inkscape="http://www.inkscape.org/namespaces/inkscape"
   xmlns:sodipodi="http://sodipodi.sourceforge.net/DTD/sodipodi-0.dtd"
   xmlns="http://www.w3.org/2000/svg"
   xmlns:svg="http://www.w3.org/2000/svg"><defs
     id="defs1" /><sodipodi:namedview
     id="namedview1"
     pagecolor="#ffffff"
     bordercolor="#000000"
     borderopacity="0.25"
     inkscape:showpageshadow="2"
     inkscape:pageopacity="0.0"
     inkscape:pagecheckerboard="0"
     inkscape:deskcolor="#d1d1d1"
     showgrid="true"
     inkscape:zoom="26.758422"
     inkscape:cx="4.2042838"
     inkscape:cy="5.1198834"
     inkscape:window-width="3424"
     inkscape:window-height="1371"
     inkscape:window-x="8"
     inkscape:window-y="33"
     inkscape:window-maximized="0"
     inkscape:current-layer="layer1"><inkscape:grid
       id="grid2"
       units="px"
       originx="0"
       originy="0"
       spacingx="1"
       spacingy="1"
       empcolor="#0099e5"
       empopacity="0.30196078"
       color="#0099e5"
       opacity="0.14901961"
       empspacing="5"
       dotted="false"
       gridanglex="30"
       gridanglez="30"
       visible="true" /></sodipodi:namedview><path
     d="m -4.9646218,6.7326815 h -6.0000002 v 5.9999995 h -2 V 6.7326815 h -6 v -2 h 6 v -6 h 2 v 6 h 6.0000002 z"
     id="path1-2"
     style="display:inline" /><circle
     style="display:inline;opacity:1;fill:#ff0000;fill-opacity:1;stroke-width:1.99937;stroke-linecap:round;stroke-linejoin:round"
     id="path2"
     cx="12"
     cy="10"
     r="5" /><path
     style="display:inline;opacity:1;fill:#ff0000;fill-opacity:1;stroke-width:1.99937;stroke-linecap:round;stroke-linejoin:round"
     d="m 17,10 c 0,5.67401 -4.214637,9 -5,9 l -0.283,-0.683 c 0.876827,-0.876827 1.289018,-1.884519 1.289018,-3.814666 L 12,10 Z"
     id="path3"
     sodipodi:nodetypes="cccccc" /><circle
     style="display:inline;opacity:1;fill:#ff0006;fill-opacity:1;stroke-width:2.09369;stroke-linecap:round;stroke-linejoin:round"
     id="path4"
     cx="12"
     cy="18.6"
     r="0.40000001" /><g
     inkscape:groupmode="layer"
     id="layer1"
     inkscape:label="plus sign"
     style="display:none"><path
       d="m 19,13 h -6 v 6 H 11 V 13 H 5 v -2 h 6 V 5 h 2 v 6 h 6 z"
       id="path1"
       style="display:inline;fill:#ff0000;fill-opacity:1" /></g><g
     inkscape:groupmode="layer"
     id="layer3"
     inkscape:label="rotated comma point circle"
     style="display:none"><path
       id="circle4"
       style="display:inline;opacity:0.768932;fill:#e62364;stroke-width:2.09369;stroke-linecap:round;stroke-linejoin:round"
       transform="rotate(45)"
       d="m 22.037468,4.6669049 a 0.40000001,0.40000001 0 0 1 -0.4,0.4 0.40000001,0.40000001 0 0 1 -0.4,-0.4 0.40000001,0.40000001 0 0 1 0.4,-0.4 0.40000001,0.40000001 0 0 1 0.4,0.4 z" /></g></svg>
