<?xml version="1.0" encoding="UTF-8" standalone="no"?>
<!-- Created with Inkscape (http://www.inkscape.org/) -->

<svg
   viewBox="0 0 576 576"
   version="1.1"
   id="svg1"
   sodipodi:docname="comma.svg"
   xml:space="preserve"
   inkscape:version="1.3 (0e150ed, 2023-07-21)"
   inkscape:export-filename="commacode.svg"
   inkscape:export-xdpi="96"
   inkscape:export-ydpi="96"
   width="576"
   height="576"
   xmlns:inkscape="http://www.inkscape.org/namespaces/inkscape"
   xmlns:sodipodi="http://sodipodi.sourceforge.net/DTD/sodipodi-0.dtd"
   xmlns="http://www.w3.org/2000/svg"
   xmlns:svg="http://www.w3.org/2000/svg"><defs
     id="defs1" /><sodipodi:namedview
     id="namedview1"
     pagecolor="#ffffff"
     bordercolor="#000000"
     borderopacity="0.25"
     inkscape:showpageshadow="2"
     inkscape:pageopacity="0.0"
     inkscape:pagecheckerboard="0"
     inkscape:deskcolor="#d1d1d1"
     showgrid="true"
     inkscape:zoom="26.758422"
     inkscape:cx="4.2042838"
     inkscape:cy="5.1198834"
     inkscape:window-width="3424"
     inkscape:window-height="1371"
     inkscape:window-x="8"
     inkscape:window-y="33"
     inkscape:window-maximized="0"
     inkscape:current-layer="layer1"><inkscape:grid
       id="grid2"
       units="px"
       originx="0"
       originy="0"
       spacingx="1"
       spacingy="1"
       empcolor="#0099e5"
       empopacity="0.30196078"
       color="#0099e5"
       opacity="0.14901961"
       empspacing="5"
       dotted="false"
       gridanglex="30"
       gridanglez="30"
       visible="true" /></sodipodi:namedview><path
     id="path2"
     style="display:inline;opacity:1;fill:none;fill-opacity:1;stroke-width:1.99937;stroke-linecap:round;stroke-linejoin:round"
     d="m 12,5 a 5,5 0 0 0 -5,5 5,5 0 0 0 5,5 5,5 0 0 0 1,-0.113281 c -0.05304,1.682676 -0.466694,2.613178 -1.283203,3.429687 v 0.002 A 0.40000001,0.40000001 0 0 0 11.599609,18.599609 0.40000001,0.40000001 0 0 0 12,19 0.40000001,0.40000001 0 0 0 12.08398,18.9902 0.40000001,0.40000001 0 0 0 12.13476,18.97457 C 13.174111,18.678987 17,15.407581 17,10 A 5,5 0 0 0 12,5 Z" /></svg>
